<svg width="682" height="640" viewBox="0 0 682 640" fill="none" xmlns="http://www.w3.org/2000/svg">
<path d="M320 1.79977C248.533 8.59977 183.867 53.1331 151.2 117.8C141.467 137.4 134.933 157.533 131.2 180.2C129.333 192.066 128.267 193.666 122.4 193.666C111.867 193.666 90.9332 200.2 74.6666 208.333C61.9999 214.733 55.3333 219.533 42.5333 232.066C-13.6001 286.066 -13.7334 375.533 42.1333 429.933C65.1999 452.333 95.5999 466.2 127.733 469L138.667 470.066V459.4V448.733L129.6 447.933C106.667 445.8 80.2666 434.866 63.7333 420.6C23.5999 386.333 10.7999 329.4 32.6666 282.2C50.6666 243.133 88.3999 217.266 131.867 214.066C147.6 212.866 149.067 211.4 150.8 195C153.733 168.733 159.867 147.8 171.333 125.933C199.467 72.0664 247.733 36.5998 308.667 24.7331C336.4 19.3998 375.467 22.5998 403.733 32.4664C472.4 56.5998 522.667 117.933 530.8 187.666C532.667 203.933 534.267 209.4 537.733 211.533C539.333 212.466 545.867 213.666 552.133 214.2C593.467 217.133 630.8 242.466 648.8 279.666C657.867 298.333 660.4 309.666 660.4 331C660.4 352.333 657.867 363.666 648.8 382.333C631.2 418.866 594.533 444.066 554 447.8L544 448.733V459.4V470.066L554.933 469C590 465.933 620.133 451.4 644.8 425.4C656.133 413.4 660.8 406.866 667.733 392.866C678.4 371.4 682 355.533 681.867 329.666C681.733 313.4 681.2 308.333 678.267 297.4C671.733 272.866 660.933 253.533 643.733 235.533C630.667 221.933 620.133 214.2 603.733 206.333C591.467 200.333 568.8 193.666 560.8 193.666C558.533 193.666 555.867 193.133 554.933 192.6C554 191.933 552.4 186.066 551.333 179.533C545.733 145.133 530 108.733 509.467 82.9998C463.067 24.5998 393.467 -5.2669 320 1.79977Z" fill="white"/>
<path d="M316.667 279.667C264.4 287 219.2 315.533 190.133 359.667C176.933 379.667 169.067 398.6 163.733 423.4C160 441.4 159.733 473.933 163.2 491.533C177.733 565.667 232.267 621 305.733 636.467C323.6 640.2 354.8 640.6 373.333 637.267C446.4 623.8 503.333 568.067 518.8 494.6C522.667 476.6 522.933 443.933 519.467 426.467C509.6 376.467 482.4 335.4 440.667 307.667C404.267 283.533 360 273.533 316.667 279.667ZM372.667 302.333C436.267 315.4 484.667 364.067 498.133 428.333C499.867 436.2 500.533 445.533 500.533 459C500.533 472.467 499.867 481.8 498.133 489.667C484.667 554.333 436.8 602.2 372 615.8C356.533 619.133 326.133 619.133 310.667 615.8C268.133 607 231.733 582.6 208.667 547.8C189.867 519.133 182.133 493.267 182.133 459C182.133 424.467 189.867 398.867 209.067 369.8C229.6 338.733 263.6 314.2 299.2 304.867C322.267 298.733 350.4 297.8 372.667 302.333Z" fill="white"/>
<path d="M266.266 384.067C262.8 387.533 260 391 260 391.667C260 392.467 274.8 407.8 292.933 425.933L326 459L292.666 492.333L259.333 525.667L267.066 533.267L274.666 541L308 507.667L341.333 474.333L374.666 507.667L408 541L415.6 533.267L423.333 525.667L390 492.333L356.666 459L389.733 425.933C407.866 407.8 422.666 392.333 422.666 391.667C422.666 389.933 410.4 377.667 408.666 377.667C407.866 377.667 392.533 392.467 374.4 410.6L341.333 443.667L308.266 410.6C290.133 392.467 274.666 377.667 274 377.667C273.2 377.667 269.733 380.6 266.266 384.067Z" fill="white"/>
</svg>
